<?xml version="1.0" standalone="no"?>
<!DOCTYPE svg PUBLIC "-//W3C//DTD SVG 20010904//EN"
 "http://www.w3.org/TR/2001/REC-SVG-20010904/DTD/svg10.dtd">
<svg version="1.0" xmlns="http://www.w3.org/2000/svg"
 width="1200.000000pt" height="1200.000000pt" viewBox="0 0 1200.000000 1200.000000"
 preserveAspectRatio="xMidYMid meet">
<metadata>
Created by potrace 1.14, written by Peter Selinger 2001-2017
</metadata>
<g transform="translate(0.000000,1200.000000) scale(0.100000,-0.100000)"
fill="#000000" stroke="none">
<path d="M2520 10313 c-148 -50 -219 -181 -186 -341 26 -126 98 -239 184 -289
41 -25 56 -28 127 -27 79 2 140 19 163 46 16 20 2 34 -42 41 -55 9 -135 50
-189 97 -86 76 -139 211 -117 299 12 49 55 102 103 127 29 16 35 35 15 52 -9
7 -27 5 -58 -5z"/>
<path d="M3365 9528 c-106 -9 -315 -48 -384 -73 -64 -22 -130 -73 -162 -123
-24 -38 -29 -56 -29 -110 0 -73 35 -203 89 -332 51 -122 60 -134 104 -134 21
0 43 6 50 13 17 17 12 87 -11 151 -54 146 -102 296 -102 315 0 25 30 59 69 79
44 23 144 36 286 36 72 1 179 5 238 9 93 8 112 12 133 32 34 32 31 93 -6 120
-31 23 -131 29 -275 17z"/>
<path d="M3182 9198 c-16 -16 -15 -32 6 -71 19 -35 112 -186 124 -202 5 -5 52
-78 106 -160 53 -83 157 -231 231 -330 73 -99 147 -198 163 -220 16 -22 62
-83 101 -137 40 -53 89 -120 110 -150 21 -29 79 -109 128 -178 49 -69 106
-150 127 -180 53 -79 106 -154 112 -160 17 -17 321 -479 392 -595 47 -77 104
-170 127 -207 22 -37 41 -70 41 -74 0 -3 -24 -32 -53 -64 -140 -155 -230 -436
-207 -644 22 -192 97 -308 245 -378 67 -31 76 -33 185 -33 110 0 119 2 180 32
36 18 93 55 128 82 34 28 64 51 66 51 2 0 6 -25 9 -55 6 -57 38 -125 75 -158
32 -30 82 -32 115 -6 25 19 28 27 24 63 -2 23 -12 61 -21 86 -14 35 -16 61
-11 125 7 78 6 82 -19 112 -24 29 -33 32 -104 37 -42 4 -119 16 -170 28 -87
20 -93 20 -111 4 -47 -43 -27 -119 41 -160 l40 -24 -49 -16 c-27 -9 -83 -23
-125 -31 -165 -31 -283 31 -341 179 -43 112 -19 316 54 460 34 67 118 178 129
171 17 -11 103 -203 117 -264 25 -106 28 -111 67 -111 48 0 59 19 59 103 -1
82 -21 169 -64 276 -16 40 -29 77 -29 82 0 4 19 13 43 20 60 16 150 4 224 -31
72 -33 166 -117 194 -172 24 -47 52 -50 69 -8 34 83 -25 198 -146 286 -94 67
-164 89 -279 88 -54 -1 -107 -7 -133 -16 l-43 -16 -37 70 c-100 188 -410 672
-566 883 -16 22 -70 99 -168 240 -74 106 -173 244 -191 264 -6 8 -23 31 -37
52 -24 36 -100 140 -293 397 -48 64 -94 126 -102 137 -82 111 -300 359 -405
462 -73 72 -103 86 -128 61z"/>
<path d="M8904 6565 c-14 -21 -15 -31 -6 -51 16 -33 40 -41 222 -75 176 -33
234 -51 255 -82 38 -54 1 -170 -121 -387 -85 -151 -134 -254 -134 -284 0 -60
88 -89 134 -43 64 64 211 397 241 546 19 91 15 173 -10 221 -27 51 -91 97
-178 124 -96 30 -248 56 -329 56 -51 0 -60 -3 -74 -25z"/>
<path d="M9902 6370 c-22 -14 -42 -40 -60 -78 -23 -50 -27 -69 -26 -162 0
-212 84 -363 215 -385 34 -6 51 -2 97 22 49 25 61 37 89 91 17 34 37 88 44
121 l11 59 40 -28 c57 -41 180 -90 234 -92 36 -2 49 2 60 17 28 38 13 57 -83
110 -97 53 -202 132 -228 171 -8 13 -29 31 -46 40 -26 13 -36 14 -62 3 -22 -9
-32 -10 -34 -2 -10 28 -67 95 -96 113 -42 26 -112 26 -155 0z m145 -162 c38
-41 113 -164 113 -187 0 -28 -48 -115 -70 -129 -44 -27 -80 8 -105 105 -25 96
-14 243 19 243 6 0 26 -15 43 -32z"/>
<path d="M8765 6185 c-132 -7 -402 -32 -600 -54 -781 -89 -1347 -134 -1885
-152 -450 -15 -633 -5 -797 43 -33 9 -45 9 -57 -1 -26 -22 -19 -58 18 -87 97
-78 283 -115 686 -139 366 -22 2119 135 2640 236 199 39 326 69 382 90 37 15
44 40 18 61 -26 21 -53 21 -405 3z"/>
</g>
</svg>
